<svg width="56" height="44" viewBox="0 0 56 44" fill="none" xmlns="http://www.w3.org/2000/svg">
<rect width="8" height="44" fill="black"/>
<path d="M8 0H53C54.6569 0 56 1.34315 56 3V8H8V0Z" fill="black"/>
<path d="M8 36H56V41C56 42.6569 54.6569 44 53 44H8V36Z" fill="black"/>
<path d="M8 16H48V28H8V16Z" fill="black"/>
<path d="M48 8H56V17C56 18.6569 54.6569 20 53 20H48V8Z" fill="black"/>
<path d="M48 20H53C54.6569 20 56 21.3431 56 23V36H48V20Z" fill="black"/>
<rect x="40" y="8" width="8" height="8" fill="black"/>
<rect x="40" y="28" width="8" height="8" fill="black"/>
<path d="M40 28H45C46.6569 28 48 29.3431 48 31V33C48 34.6569 46.6569 36 45 36H40V28Z" fill="white"/>
<path d="M40 8H45C46.6569 8 48 9.34315 48 11V13C48 14.6569 46.6569 16 45 16H40V8Z" fill="white"/>
</svg>
