<svg width="64" height="44" viewBox="0 0 64 44" fill="none" xmlns="http://www.w3.org/2000/svg">
<path d="M8 44L3 44C1.34315 44 1.17422e-07 42.6569 2.62268e-07 41L3.58433e-06 3C3.72918e-06 1.34315 1.34315 3.23274e-06 3 3.37758e-06L8 3.8147e-06L8 44Z" fill="black"/>
<rect x="56" y="28" width="48" height="8" transform="rotate(-180 56 28)" fill="black"/>
<path d="M64 25C64 26.6569 62.6569 28 61 28L56 28L56 1.20797e-06L61 1.64508e-06C62.6569 1.78993e-06 64 1.34315 64 3L64 25Z" fill="black"/>
<rect x="56" y="8" width="48" height="8" transform="rotate(-180 56 8)" fill="black"/>
<rect x="60" y="44" width="52" height="8" transform="rotate(-180 60 44)" fill="black"/>
<path d="M8 44L3 44C1.34315 44 1.17422e-07 42.6569 2.62268e-07 41L3.58433e-06 3C3.72918e-06 1.34315 1.34315 3.23274e-06 3 3.37758e-06L8 3.8147e-06L8 44Z" fill="black"/>
<rect x="56" y="28" width="48" height="8" transform="rotate(-180 56 28)" fill="black"/>
<path d="M64 25C64 26.6569 62.6569 28 61 28L56 28L56 1.20797e-06L61 1.64508e-06C62.6569 1.78993e-06 64 1.34315 64 3L64 25Z" fill="black"/>
<rect x="56" y="8" width="48" height="8" transform="rotate(-180 56 8)" fill="black"/>
</svg>
