<svg width="56" height="44" viewBox="0 0 56 44" fill="none" xmlns="http://www.w3.org/2000/svg">
<rect x="56" y="36" width="8" height="36" transform="rotate(180 56 36)" fill="black"/>
<path d="M56 41C56 42.6569 54.6569 44 53 44L3 44C1.34315 44 3.69728e-06 42.6569 3.55243e-06 41L3.11532e-06 36L56 36L56 41Z" fill="black"/>
<rect x="8" y="36" width="8" height="36" transform="rotate(180 8 36)" fill="black"/>
<rect x="56" y="36" width="8" height="36" transform="rotate(180 56 36)" fill="black"/>
<path d="M56 41C56 42.6569 54.6569 44 53 44L3 44C1.34315 44 3.69728e-06 42.6569 3.55243e-06 41L3.11532e-06 36L56 36L56 41Z" fill="black"/>
<rect x="8" y="36" width="8" height="36" transform="rotate(180 8 36)" fill="black"/>
</svg>
