<svg width="210" height="150" viewBox="0 0 210 150" fill="none" xmlns="http://www.w3.org/2000/svg">
  <line x1="93.7124" y1="38.0271" x2="31.7124" y2="81.0271" stroke="black" stroke-width="2.5"/>
  <line x1="88.7019" y1="28.0343" x2="32.7019" y2="66.0343" stroke="black" stroke-width="2.5"/>
  <line x1="114.712" y1="36.9729" x2="176.712" y2="79.9729" stroke="black" stroke-width="2.5"/>
  <line x1="116.701" y1="24.9649" x2="181.701" y2="68.9649" stroke="black" stroke-width="2.5"/>
  <rect x="86" y="1" width="38" height="38" rx="3" fill="white" stroke="black" stroke-width="2"/>
  <path d="M108.83 22.2404C106.781 25.7903 104.408 28.6801 102.244 30.4867C101.161 31.3914 100.152 32.0064 99.28 32.3078C98.4069 32.6098 97.7354 32.578 97.25 32.2978C96.7646 32.0175 96.4014 31.4519 96.2263 30.5448C96.0516 29.6393 96.0795 28.4576 96.3213 27.0671C96.8041 24.2902 98.1203 20.7903 100.17 17.2404C102.219 13.6904 104.592 10.8006 106.756 8.99404C107.839 8.08937 108.849 7.47437 109.72 7.17296C110.593 6.87098 111.265 6.90275 111.75 7.18301C112.235 7.46328 112.599 8.02884 112.774 8.93601C112.948 9.84145 112.921 11.0231 112.679 12.4137C112.196 15.1906 110.88 18.6904 108.83 22.2404Z" stroke="black"/>
  <path d="M105 15.2404C109.099 15.2404 112.788 15.8504 115.434 16.8207C116.76 17.3066 117.797 17.8733 118.494 18.4773C119.192 19.0825 119.5 19.6798 119.5 20.2404C119.5 20.8009 119.192 21.3982 118.494 22.0034C117.797 22.6074 116.76 23.1741 115.434 23.66C112.788 24.6303 109.099 25.2404 105 25.2404C100.901 25.2404 97.2118 24.6303 94.5655 23.66C93.2404 23.1741 92.2031 22.6074 91.5063 22.0034C90.8082 21.3982 90.5 20.8009 90.5 20.2404C90.5 19.6798 90.8082 19.0825 91.5063 18.4773C92.2031 17.8733 93.2404 17.3066 94.5655 16.8207C97.2118 15.8504 100.901 15.2404 105 15.2404Z" stroke="black"/>
  <path d="M108.83 17.2404C110.88 20.7903 112.196 24.2902 112.679 27.0671C112.921 28.4576 112.948 29.6393 112.774 30.5448C112.599 31.4519 112.235 32.0175 111.75 32.2978C111.265 32.578 110.593 32.6098 109.72 32.3078C108.849 32.0064 107.839 31.3914 106.756 30.4867C104.592 28.6801 102.219 25.7903 100.17 22.2404C98.1203 18.6904 96.8041 15.1906 96.3213 12.4137C96.0795 11.0231 96.0516 9.84145 96.2263 8.93601C96.4014 8.02884 96.7646 7.46328 97.25 7.18301C97.7354 6.90275 98.4069 6.87098 99.28 7.17296C100.152 7.47437 101.161 8.08937 102.244 8.99404C104.408 10.8006 106.781 13.6904 108.83 17.2404Z" stroke="black"/>
  <rect x="1" y="66" width="38" height="38" rx="3" fill="white" stroke="black" stroke-width="2"/>
  <rect x="171" y="66" width="38" height="38" rx="3" fill="white" stroke="black" stroke-width="2"/>
  <line x1="185.75" y1="72.4" x2="200" y2="72.4" stroke="black"/>
  <line x1="193.35" y1="81.4" x2="200" y2="81.4" stroke="black"/>
  <line x1="181.95" y1="85.9" x2="187.65" y2="85.9" stroke="black"/>
  <line y1="-0.5" x2="11.1903" y2="-0.5" transform="matrix(-0.594265 0.804269 -0.833397 -0.552674 200 72)" stroke="black"/>
  <line y1="-0.5" x2="14.9834" y2="-0.5" transform="matrix(-0.317018 0.948419 -0.948946 -0.315439 185.75 72)" stroke="black"/>
  <line y1="-0.5" x2="14.1607" y2="-0.5" transform="matrix(-0.301892 0.953342 -0.961905 -0.273383 187.65 85.5)" stroke="black"/>
  <line y1="-0.5" x2="24.5029" y2="-0.5" transform="matrix(-0.678492 0.734608 -0.769879 -0.63819 200 81)" stroke="black"/>
  <path d="M29 70.5C29 70.2239 29.2239 70 29.5 70C29.7761 70 30 70.2239 30 70.5V84H29V70.5Z" fill="black"/>
  <path d="M20 76C20 75.4477 20.4477 75 21 75H34.5C34.7761 75 35 75.2239 35 75.5C35 75.7761 34.7761 76 34.5 76H20Z" fill="black"/>
  <rect x="20" y="76" width="1" height="8" fill="black"/>
  <path d="M10 85C10 84.4477 10.4477 84 11 84H30C30 84.5523 29.5523 85 29 85H10Z" fill="black"/>
  <path d="M20 85H21V93C21 93.5523 20.5523 94 20 94V85Z" fill="black"/>
  <path d="M10 85H11V98.5C11 98.7761 10.7761 99 10.5 99C10.2239 99 10 98.7761 10 98.5V85Z" fill="black"/>
  <path d="M5 93.5C5 93.2239 5.22386 93 5.5 93H20V94H5.5C5.22386 94 5 93.7761 5 93.5Z" fill="black"/>
  <rect x="9.79004" y="87.6814" width="1.26062" height="9.19025" rx="0.630309" transform="rotate(-45 9.79004 87.6814)" fill="black"/>
  <rect x="12.8218" y="84.7712" width="1.26" height="10.5446" rx="0.63" transform="rotate(-45 12.8218 84.7712)" fill="black"/>
  <rect x="22.7854" y="75.6752" width="1.25831" height="9.20778" rx="0.629157" transform="rotate(-45 22.7854 75.6752)" fill="black"/>
  <rect x="19.76" y="78.0745" width="1.26139" height="10.1152" rx="0.630695" transform="rotate(-45 19.76 78.0745)" fill="black"/>
  <path d="M6.61536 120H36.6154V124.615H6.61536V120Z" fill="black"/>
  <path d="M2 123C2 121.343 3.34315 120 5 120H6.61538V133.846H5C3.34314 133.846 2 132.503 2 130.846V123Z" fill="black"/>
  <rect x="6.61536" y="129.231" width="27.6923" height="4.61539" fill="black"/>
  <path d="M34.3077 129.231H35.9231C37.5799 129.231 38.9231 130.574 38.9231 132.231V142.385C38.9231 144.041 37.5799 145.385 35.9231 145.385H34.3077V129.231Z" fill="black"/>
  <path d="M4.30768 140.769H34.3077V145.385H4.30768V140.769Z" fill="black"/>
  <rect x="135.846" y="120" width="30" height="4.61538" fill="black"/>
  <path d="M131.231 123C131.231 121.343 132.574 120 134.231 120H135.846V133.846H134.231C132.574 133.846 131.231 132.503 131.231 130.846V123Z" fill="black"/>
  <rect x="135.846" y="129.231" width="27.6923" height="4.61539" fill="black"/>
  <path d="M163.538 129.231H165.154C166.811 129.231 168.154 130.574 168.154 132.231V142.385C168.154 144.041 166.811 145.385 165.154 145.385H163.538V129.231Z" fill="black"/>
  <rect x="133.538" y="140.769" width="30" height="4.61539" fill="black"/>
  <rect x="45.8461" y="120" width="30" height="4.61538" fill="black"/>
  <path d="M75.8461 120H77.4615C79.1184 120 80.4615 121.343 80.4615 123V142.385C80.4615 144.041 79.1184 145.385 77.4615 145.385H75.8461V120Z" fill="black"/>
  <rect x="48.1539" y="129.231" width="27.6923" height="4.61539" fill="black"/>
  <path d="M43.5385 132.231C43.5385 130.574 44.8816 129.231 46.5385 129.231H48.1538V145.385H46.5385C44.8816 145.385 43.5385 144.041 43.5385 142.385V132.231Z" fill="black"/>
  <rect x="48.1539" y="140.769" width="27.6923" height="4.61539" fill="black"/>
  <rect x="85.0769" y="126.923" width="4.61539" height="18.4615" fill="black"/>
  <rect x="85.0769" y="120" width="4.61539" height="4.61538" fill="black"/>
  <rect x="94.3077" y="124.615" width="4.61538" height="20.7692" fill="black"/>
  <path d="M94.3077 123C94.3077 121.343 95.6508 120 97.3077 120H123.615C125.272 120 126.615 121.343 126.615 123V124.615H94.3077V123Z" fill="black"/>
  <rect x="122" y="124.615" width="4.61539" height="20.7692" fill="black"/>
  <path d="M172.769 123C172.769 121.343 174.112 120 175.769 120H204.385C206.042 120 207.385 121.343 207.385 123V124.615H172.769V123Z" fill="black"/>
  <path d="M172.769 140.769H207.385V142.385C207.385 144.042 206.042 145.385 204.385 145.385H175.769C174.112 145.385 172.769 144.042 172.769 142.385V140.769Z" fill="black"/>
  <rect x="172.769" y="124.615" width="4.61539" height="16.1538" fill="black"/>
  <rect x="202.769" y="124.615" width="4.61539" height="16.1538" fill="black"/>
  <path d="M188.923 136.154H193.538V150H191.923C190.266 150 188.923 148.657 188.923 147V136.154Z" fill="black"/>
  <path d="M6.61536 120H36.6154V124.615H6.61536V120Z" fill="black"/>
  <rect x="6.61536" y="129.231" width="27.6923" height="4.61539" fill="black"/>
  <path d="M34.3077 129.231H35.9231C37.5799 129.231 38.9231 130.574 38.9231 132.231V142.385C38.9231 144.041 37.5799 145.385 35.9231 145.385H34.3077V129.231Z" fill="black"/>
  <path d="M4.30768 140.769H34.3077V145.385H4.30768V140.769Z" fill="black"/>
  <rect x="135.846" y="120" width="30" height="4.61538" fill="black"/>
  <path d="M131.231 123C131.231 121.343 132.574 120 134.231 120H135.846V133.846H134.231C132.574 133.846 131.231 132.503 131.231 130.846V123Z" fill="black"/>
  <rect x="135.846" y="129.231" width="27.6923" height="4.61539" fill="black"/>
  <path d="M163.538 129.231H165.154C166.811 129.231 168.154 130.574 168.154 132.231V142.385C168.154 144.041 166.811 145.385 165.154 145.385H163.538V129.231Z" fill="black"/>
  <rect x="133.538" y="140.769" width="30" height="4.61539" fill="black"/>
  <rect x="45.8461" y="120" width="30" height="4.61538" fill="black"/>
  <path d="M75.8461 120H77.4615C79.1184 120 80.4615 121.343 80.4615 123V142.385C80.4615 144.041 79.1184 145.385 77.4615 145.385H75.8461V120Z" fill="black"/>
  <rect x="48.1539" y="129.231" width="27.6923" height="4.61539" fill="black"/>
  <path d="M43.5385 132.231C43.5385 130.574 44.8816 129.231 46.5385 129.231H48.1538V145.385H46.5385C44.8816 145.385 43.5385 144.041 43.5385 142.385V132.231Z" fill="black"/>
  <rect x="48.1539" y="140.769" width="27.6923" height="4.61539" fill="black"/>
  <rect x="85.0769" y="126.923" width="4.61539" height="18.4615" fill="black"/>
  <rect x="85.0769" y="120" width="4.61539" height="4.61538" fill="black"/>
  <rect x="94.3077" y="124.615" width="4.61538" height="20.7692" fill="black"/>
  <path d="M94.3077 123C94.3077 121.343 95.6508 120 97.3077 120H123.615C125.272 120 126.615 121.343 126.615 123V124.615H94.3077V123Z" fill="black"/>
  <rect x="122" y="124.615" width="4.61539" height="20.7692" fill="black"/>
  <path d="M172.769 123C172.769 121.343 174.112 120 175.769 120H204.385C206.042 120 207.385 121.343 207.385 123V124.615H172.769V123Z" fill="black"/>
  <path d="M172.769 140.769H207.385V142.385C207.385 144.042 206.042 145.385 204.385 145.385H175.769C174.112 145.385 172.769 144.042 172.769 142.385V140.769Z" fill="black"/>
  <rect x="172.769" y="124.615" width="4.61539" height="16.1538" fill="black"/>
  <rect x="202.769" y="124.615" width="4.61539" height="16.1538" fill="black"/>
  <path d="M188.923 136.154H193.538V150H191.923C190.266 150 188.923 148.657 188.923 147V136.154Z" fill="black"/>
  </svg>